<svg aria-hidden="true" style="width:0;height:0;position:absolute;overflow:hidden" xmlns="http://www.w3.org/2000/svg"><defs><symbol id="icon-Facebook" viewBox="0 0 32 32"><path fill="currentColor" d="M0 16C0 7.163 7.163 0 16 0s16 7.163 16 16-7.163 16-16 16S0 24.837 0 16zm17.668 9.408v-8.705h2.403l.318-3h-2.721l.004-1.501c0-.782.074-1.202 1.198-1.202h1.502V8h-2.403c-2.887 0-3.903 1.455-3.903 3.902v1.801h-1.799v3h1.799v8.705h3.602z"/></symbol><symbol id="icon-Inst" viewBox="0 0 32 32"><path fill="currentColor" d="M0 16C0 7.163 7.163 0 16 0s16 7.163 16 16-7.163 16-16 16S0 24.837 0 16zm16.001-8.533c-2.318 0-2.608.01-3.519.052-.908.042-1.529.185-2.071.396-.561.218-1.037.509-1.512.984s-.766.95-.985 1.511c-.212.543-.356 1.163-.396 2.071-.041.91-.051 1.201-.051 3.519s.01 2.608.052 3.518c.042.908.186 1.529.396 2.071.218.561.51 1.037.984 1.512s.95.767 1.511.985c.543.211 1.163.355 2.071.396.91.041 1.201.052 3.518.052s2.608-.01 3.518-.052c.908-.042 1.529-.185 2.072-.396.561-.218 1.036-.51 1.511-.985s.766-.95.985-1.512c.21-.543.354-1.163.396-2.071.041-.91.052-1.2.052-3.518s-.011-2.608-.052-3.519c-.043-.908-.187-1.528-.396-2.071-.219-.561-.51-1.037-.985-1.512s-.949-.766-1.511-.984c-.544-.211-1.164-.355-2.073-.396-.91-.041-1.2-.052-3.518-.052h.003z"/><path fill="currentColor" d="M15.235 9.004h.766c2.278 0 2.548.008 3.448.049.832.038 1.284.177 1.584.294.398.155.682.34.981.638s.484.583.639.981c.117.3.256.752.294 1.584.041.9.05 1.17.05 3.447s-.009 2.548-.05 3.447c-.038.832-.177 1.284-.294 1.584-.155.398-.34.682-.639.98s-.582.484-.981.638c-.3.117-.752.256-1.584.294-.9.041-1.17.05-3.448.05s-2.549-.009-3.448-.05c-.832-.038-1.284-.177-1.585-.294-.398-.155-.683-.34-.981-.638s-.484-.582-.639-.981c-.117-.3-.256-.752-.294-1.584-.041-.9-.049-1.17-.049-3.449s.008-2.548.049-3.447c.038-.832.177-1.284.294-1.584.155-.398.34-.683.639-.981s.583-.484.981-.639c.301-.117.753-.256 1.585-.294.787-.036 1.092-.046 2.683-.048v.002zm5.321 1.417a1.024 1.024 0 1 0 0 2.048 1.024 1.024 0 0 0 0-2.048zm-4.555 1.197a4.382 4.382 0 1 0 0 8.764 4.382 4.382 0 0 0 0-8.764z"/><path fill="currentColor" d="M16.001 13.156a2.844 2.844 0 1 1 0 5.687 2.844 2.844 0 0 1 0-5.687z"/></symbol><symbol id="icon-Telegram" viewBox="0 0 32 32"><path fill="currentColor" d="M32 16c0 8.837-7.163 16-16 16S0 24.837 0 16 7.163 0 16 0s16 7.163 16 16zm-21.286-1.466c-1.603.7-3.25 1.419-4.755 2.248-.786.576.259.983 1.239 1.365.156.061.31.121.455.181.121.037.243.076.368.116 1.09.347 2.306.735 3.365.152 1.739-.999 3.38-2.154 5.02-3.308.537-.378 1.074-.756 1.615-1.129l.085-.055c.46-.298 1.496-.97 1.113-.045-.906.99-1.876 1.867-2.851 2.749-.657.594-1.317 1.19-1.961 1.825-.561.456-1.143 1.372-.515 2.01a281.666 281.666 0 0 0 4.384 2.988c.478.321.956.643 1.432.965.808.645 2.071.123 2.249-.885l.238-1.391c.438-2.563.877-5.127 1.264-7.699.053-.403.112-.807.172-1.21.145-.978.29-1.957.335-2.941-.117-.981-1.307-.766-1.969-.545-3.403 1.295-6.773 2.686-10.129 4.102-.38.168-.766.337-1.154.506z"/></symbol><symbol id="icon-WhatsApp" viewBox="0 0 32 32"><path fill="currentColor" d="M16 32C7.163 32 0 24.837 0 16S7.163 0 16 0s16 7.163 16 16-7.163 16-16 16zm.527-7.098c5.246-.002 9.512-4.27 9.514-9.514.001-2.542-.988-4.932-2.784-6.731s-4.185-2.789-6.73-2.79c-5.244 0-9.512 4.268-9.514 9.514a9.486 9.486 0 0 0 1.27 4.756l-1.35 4.93 5.044-1.323a9.5 9.5 0 0 0 4.547 1.158h.004z"/><path fill="currentColor" d="m12.211 22.021-2.993.785.799-2.918-.188-.299a7.88 7.88 0 0 1-1.209-4.208c.002-4.36 3.549-7.907 7.911-7.907 2.112.001 4.098.824 5.591 2.319s2.315 3.481 2.314 5.594c-.002 4.36-3.549 7.908-7.908 7.908h-.003a7.905 7.905 0 0 1-4.025-1.102l-.289-.171zm9.11-4.371c-.059-.099-.218-.159-.456-.278s-1.406-.694-1.624-.773c-.218-.079-.376-.119-.535.119s-.614.774-.753.932c-.139.159-.277.178-.515.059s-1.004-.37-1.912-1.18c-.707-.63-1.184-1.409-1.322-1.647s-.015-.367.104-.485c.107-.107.238-.278.357-.417s.158-.238.238-.396c.079-.159.04-.298-.02-.417s-.535-1.289-.733-1.765c-.193-.464-.389-.401-.535-.408-.138-.007-.297-.008-.456-.008s-.416.06-.634.298c-.218.238-.832.813-.832 1.983s.852 2.301.971 2.459c.119.159 1.676 2.56 4.061 3.59.567.245 1.01.391 1.355.501.569.181 1.088.155 1.497.094.457-.068 1.406-.575 1.605-1.13s.198-1.031.139-1.13z"/></symbol><symbol id="logo" viewBox="0 0 105 31"><path d="M0 30.5h105"/><path stroke-width="0" d="M9.67 14.7c1.5.6 2.65 1.32 3.48 2.16a3.84 3.84 0 0 1 1.23 2.74c0 1.59-.73 2.9-2.2 3.97A8.77 8.77 0 0 1 7 25.15a8.6 8.6 0 0 1-5.06-1.39A4.24 4.24 0 0 1 0 20.22c0-1 .39-1.91 1.16-2.75a7.8 7.8 0 0 1 3.18-1.97C1.98 14.3.8 12.73.8 10.81c0-1.4.62-2.58 1.86-3.52a7.08 7.08 0 0 1 4.3-1.41c1.98 0 3.57.43 4.78 1.3 1.2.86 1.8 1.9 1.8 3.12 0 1.85-1.3 3.32-3.88 4.4zm-6.6-5.3c0 .94.26 1.73.78 2.37a6.92 6.92 0 0 0 2.7 1.73l2.4.93a5.32 5.32 0 0 0 2.26-4.29 3.6 3.6 0 0 0-1.16-2.82 4.68 4.68 0 0 0-3.29-1.07 3.9 3.9 0 0 0-2.64.94 2.87 2.87 0 0 0-1.05 2.2zm9.05 11.78c0-1.73-1.25-3.09-3.77-4.08l-2.83-1.07c-.23-.05-.4-.12-.5-.21-1.84 1.15-2.76 2.64-2.76 4.45 0 1.3.46 2.35 1.38 3.17.93.8 2.18 1.2 3.74 1.2a5.6 5.6 0 0 0 3.5-.96 3.07 3.07 0 0 0 1.24-2.5zm14.59 3.94c-2.7 0-5-.85-6.92-2.56a8.61 8.61 0 0 1-2.88-6.77 9.58 9.58 0 0 1 9.91-9.91c.75 0 1.6.08 2.56.24.95.16 1.5.24 1.64.24.69 0 1.15-.42 1.4-1.25.11-.15.17-.15.17 0l2.02 8.31c0 .07-.04.1-.11.08-.02 0-.05-.03-.08-.08a12.17 12.17 0 0 0-3.59-5.33c-1.52-1.24-2.93-1.86-4.23-1.86a5.4 5.4 0 0 0-4.36 2.2c-1.17 1.48-1.75 3.44-1.75 5.87 0 2.72.75 4.93 2.26 6.64a7.65 7.65 0 0 0 5.98 2.55c3.15 0 5.57-1.88 7.28-5.64.07-.08.13-.08.18-.03.06.03.07.1.03.19-2.15 4.74-5.32 7.11-9.5 7.11zM47.75 5.88c3.1 0 5.59.88 7.5 2.64a8.84 8.84 0 0 1 2.88 6.87c0 2.81-1.01 5.15-3.02 7.01a10.69 10.69 0 0 1-7.52 2.77c-3 0-5.45-.87-7.35-2.6a8.94 8.94 0 0 1-2.83-6.86c0-2.8.99-5.14 2.96-7a10.28 10.28 0 0 1 7.38-2.83zm.52 18.92a6.04 6.04 0 0 0 4.58-2.16c1.23-1.42 1.82-3.55 1.75-6.4a12.24 12.24 0 0 0-2.1-6.98c-1.35-2.04-3.1-3.04-5.23-3a6.04 6.04 0 0 0-4.6 2.18c-1.25 1.45-1.83 3.6-1.76 6.45.02 1.61.32 3.2.92 4.77a9.35 9.35 0 0 0 2.56 3.73 5.55 5.55 0 0 0 3.88 1.41zm21.65.37c-1.02 0-2.12-.08-3.28-.24a24.98 24.98 0 0 0-2.1-.24c-.56 0-.96.41-1.2 1.23 0 .05-.05.08-.1.08-.03 0-.06-.03-.08-.08l-2.05-8.6c-.02-.08 0-.11.03-.11.09 0 .14.02.16.08.86 2.2 2.1 4 3.72 5.4 1.63 1.43 3.27 2.14 4.9 2.14 1.35 0 2.47-.34 3.37-1.02a3.13 3.13 0 0 0 1.37-2.58c.11-1.16-.38-2.08-1.48-2.77a7.79 7.79 0 0 0-1.35-.67l-1.72-.64c-.29-.1-1.06-.35-2.32-.74-2.15-.66-3.71-1.42-4.68-2.27-.97-.87-1.46-2-1.46-3.38a4.3 4.3 0 0 1 1.67-3.5 6.78 6.78 0 0 1 4.47-1.38c.83 0 1.76.08 2.8.24 1.05.16 1.7.24 1.94.24.26-.04.46-.12.62-.24.18-.14.3-.28.35-.43.08-.14.15-.33.22-.56.02-.05.04-.08.08-.08s.06.03.08.08l1.94 8.05c0 .1-.04.14-.13.1-.04 0-.07-.03-.08-.1a12.46 12.46 0 0 0-3.45-5.12A7 7 0 0 0 67.5 6.2c-.99 0-1.84.31-2.56.93a2.92 2.92 0 0 0-1.03 2.24c.02.73.17 1.32.44 1.76.28.44.83.87 1.64 1.28.82.4 2.07.86 3.74 1.36 2.4.67 4.2 1.47 5.42 2.4a4.17 4.17 0 0 1 1.83 3.43c0 1.62-.7 2.95-2.07 4a8.01 8.01 0 0 1-4.99 1.57zm34.92-.47c.06 0 .1.01.11.05.04.03.05.07.03.1-.02.04-.06.06-.14.06a288.28 288.28 0 0 0-2.83-.08l-2.74.02a85.08 85.08 0 0 0-2.83.11.18.18 0 0 1-.14-.05.11.11 0 0 1 0-.1.18.18 0 0 1 .14-.06c.41-.02.73-.05.94-.08.23-.04.46-.1.67-.22.22-.12.37-.26.46-.42a5.25 5.25 0 0 0 .43-1.87c.04-.42.07-.98.08-1.68V7.74l-6.43 8.93.97 1.39a6.61 6.61 0 0 0-1.94 2.05c-.04.05-.08.05-.14 0L82.81 8.46v11.22c0 1.37.34 2.55 1.02 3.55a3.44 3.44 0 0 0 2.86 1.5c.05 0 .09 0 .1.04.04.04.04.08 0 .11-.01.04-.05.05-.1.05-.36 0-1.17-.01-2.43-.05a56.93 56.93 0 0 0-4.85.05c-.07 0-.1-.02-.1-.08a.16.16 0 0 1 .1-.1c.96-.04 1.7-.47 2.24-1.3.56-.84.83-1.86.83-3.05 0-1.68 0-3.26-.02-4.71v-4.77c0-1.37-.08-2.38-.24-3.02-.17-.63-.44-1.05-.81-1.25a3.59 3.59 0 0 0-1.75-.32c-.11 0-.17-.03-.17-.1 0-.08.06-.11.17-.11a392.87 392.87 0 0 0 3.07.08h2.26l7.38 10.2 7.35-10.2h2.3a290.89 290.89 0 0 0 2.82-.08c.15 0 .2.04.14.13-.04.06-.08.08-.14.08-.6.04-1.06.1-1.34.16-.27.07-.52.27-.73.59-.22.3-.35.7-.4 1.22-.06.5-.1 1.26-.11 2.27v9.89c.02 1 .05 1.77.1 2.29.06.5.2.9.4 1.22.22.3.47.5.74.56.28.08.73.13 1.34.16z"/><path d="M0 .5h105"/></symbol><symbol id="burger_icon_open" viewBox="0 0 54 54" fill="none"><circle cx="27" cy="27" r="26.5"/><path stroke-width="2" stroke-linecap="round" d="M13 27h28m-28 8h28M13 19h28"/></symbol><symbol id="close_icon" viewBox="0 0 21 21" fill="none" xmlns="http://www.w3.org/2000/svg"><path stroke="#F5B9D1" stroke-width="2" stroke-linecap="round" d="M1.414 1 20 19.586M1 19.586 19.586 1"/></symbol><symbol id="close_icon_gallery" viewBox="0 0 21 21" fill="none" xmlns="http://www.w3.org/2000/svg"><path stroke-width="2" stroke-linecap="round" d="M1.414 1 20 19.586M1 19.586 19.586 1"/></symbol><symbol id="slider_nav_btn" viewBox="0 0 7 11" xmlns="http://www.w3.org/2000/svg" fill="none"><path fill="currentColor" fill-rule="evenodd" d="M5.757.202a.5.5 0 0 1 .708.707L2.298 5.076l4.177 4.43a.5.5 0 0 1-.728.686L1.242 5.414l-.348-.349.01-.01-.01-.01.359-.338L5.757.202Z" clip-rule="evenodd"/></symbol><symbol id="slider_btn_next" viewBox="0 0 7 11" fill="none"><path xmlns="http://www.w3.org/2000/svg" fill-rule="evenodd" clip-rule="evenodd" d="M1.242 10.798a.5.5 0 1 1-.707-.707l4.167-4.167-4.177-4.43a.5.5 0 1 1 .728-.686l4.505 4.778.348.349-.01.01.01.01-.359.338-4.505 4.505Z" fill="currentColor"/></symbol></defs></svg>