<svg width="510" height="621" viewBox="0 0 510 621" fill="none" xmlns="http://www.w3.org/2000/svg"><ellipse cx="255" cy="289.53" rx="255" ry="255.24" fill="#EA4781"/><g opacity=".6" filter="url(#filter0_f_340_1442)"><rect width="220.63" height="488.28" rx="30" transform="rotate(5 -573.2 2015.79) skewX(.01)" fill="#333"/></g><path d="M142.23 86.12l2.21.2-1.74 19.9-2.2-.2 1.73-19.9zM138.75 125.92l2.21.2-3.48 39.8-2.2-.2 3.47-39.8zM134.21 177.88l2.21.2-3.48 39.8-2.2-.2 3.47-39.8zM402.67 162.4l2.2.2-5.6 64.11-2.2-.2 5.6-64.11z" fill="#333"/><path d="M148.79 36.57a35.29 35.29 0 0138.44-32.28L380.5 21.2a35.3 35.3 0 0132.25 38.47L371.7 529.52a35.29 35.29 0 01-38.44 32.29l-193.28-16.93a35.3 35.3 0 01-32.25-38.47L148.8 36.57z" fill="#333"/><path d="M157.24 41.77a29.64 29.64 0 0132.43-27.24l184.45 16.15a29.65 29.65 0 0127.2 32.46l-40.29 461a29.64 29.64 0 01-32.43 27.23l-184.45-16.15a29.65 29.65 0 01-27.2-32.46l40.29-461z" fill="#fff"/><path d="M195.73 530.83c.06-.61.47-1.08 1.2-1.01l81.74 7.15c.74.07 1.06.6 1 1.2-.05.62-.46 1.08-1.2 1.02l-81.73-7.16c-.74-.06-1.06-.6-1-1.2zM218.39 17.04L345.4 28.16l-.67 7.74A13.33 13.33 0 01330.3 48l-100.5-8.8a13.34 13.34 0 01-12.1-14.42l.68-7.74z" fill="#333"/><path d="M268.42 30.34c.08-.92 1.41-2.1 2.4-2.02l24.3 2.13c1 .08 2.1 1.48 2.01 2.4-.07.92-1.3 1-2.3.91l-24.3-2.13c-.99-.08-2.2-.38-2.11-1.3zM312.5 35.3c-.19 2.15-1.47 3.22-3.6 3.04-2.14-.2-4.32-1.57-4.13-3.7.19-2.14 2.67-4.23 4.8-4.04 2.14.18 3.12 2.57 2.93 4.7z" fill="#fff"/><rect opacity=".35" x=".45" y=".54" width="8.98" height="5.66" rx="2.83" transform="rotate(5 -291.04 4303.65) skewX(.01)" stroke="#858585"/><path opacity=".4" d="M383.9 46.02l-.19 2.2c.69-.12 1.16-.52 1.2-1 .05-.48-.35-.96-1-1.2z" fill="#858585"/><rect width="8.87" height="4.44" rx="1.33" transform="rotate(5 -304.75 4315.24) skewX(.01)" fill="#858585"/><path fill-rule="evenodd" clip-rule="evenodd" d="M366.43 42.26c.86.07 1.37.57 1.93 1.12l.18.18c.05.05 1.05.13 1.1.1l.1-1.11a5.53 5.53 0 00-6.63-.58l-.1 1.1a4.7 4.7 0 001.11.1l.2-.14c.66-.44 1.25-.85 2.1-.77zm-.2 2.21c.37.03.54.36.73.72.09.17.17.33.28.48l-1.2 1.01-1-1.2c.13-.13.24-.28.35-.42.25-.33.48-.62.84-.59zm-2.2-.2l1 1.2.01-.1c.02-.28.06-.98.09-1a2.17 2.17 0 012.2.2c.03.02-.05.72-.08 1v.1l1.2-1a2.83 2.83 0 00-4.43-.4zM359.41 46.1l.49-5.53-1.1-.1-.49 5.53 1.1.1zm-2.92-4.71l1.1.1-.38 4.42-1.1-.1.38-4.42zm-1.2 1l-1.1-.09-.3 3.32 1.1.1.3-3.32zm-2.3.92l-1.11-.1c-.1 0-.1.42-.1.76v.35l-.1 1.1 1.1.1.1-1.1.06-.35c.06-.34.14-.75.04-.76z" fill="#858585"/><path d="M182.8 29.52c.53.05.73.2 1.1.1.38-.11.96-.79 1.2-1.01.24-.23 1.08-.69 1.2-1.01.12-.32.06-.72.1-1.1l.1-1.11c.02-.34.14-.85.1-1.1-.06-.27-1 .08-1.11-.1-.12-.19.26-1 .1-1.1-.17-.1.19 0 0 0-.22-.03-.93-.18-1.11-.1-.18.07.03.95-.1 1.1-.13.15-1.02-.3-1.1-.1-.08.21-.08.87-.1 1.1-.02.24-.03-.2 0 0 .04.22.9 1.04 1 1.21.1.17-.16-.1 0 0 .17.11.88.08 1.11.1.22.02-.19.06 0 0 .2-.07.96.22 1.1.1.16-.13.01-.94.1-1.11.1-.17-.02.18 0 0-.02.29.06.84-.1 1.1-.14.27.15.9-.09 1.11-.23.2-.8-.2-1.1-.1-.3.11-.77-.06-1.1-.1-.41-.03-.81.08-1.11-.09-.3-.18.18.27 0 0s-.94-.86-1.01-1.2c-.07-.34.06-.74.1-1.1.03-.4-.06-.78.1-1.11.15-.34.93-.77 1.2-1.01.26-.25-.26-.99.1-1.1.35-.13 1.77.15 2.2.19.46.04.77-.11 1.1.1.34.2-.3.77-.1 1.1.22.32.93.79 1.01 1.2.1.41-.05.64-.1 1.1l-.09 1.11c-.04.49.03.66-.1 1.1-.12.45.15.75-.1 1.11-.22.37-.84.75-1.2 1.01-.34.26-.7.89-1.2 1.01-.48.12-1.57-.14-2.2-.2l.1-1.1zM188.32 30c.02-.2.94.23 1.1.1.16-.13-.25-.02 0 0 .26.02.97-.06 1.1.1.14.15.02-.21 0 0-.01.2.07.97-.1 1.1-.15.13-.84-.07-1.1-.1-.25-.02.14.16 0 0-.13-.15-1.02-.98-1-1.2zm.38-4.42c.02-.2 1.04-.88 1.2-1 .17-.14-.25-.03 0 0 .26.02.98-.07 1.1.1.15.15-.07.89-.09 1.1-.02.2.16-.13 0 0s-.84-.08-1.1-.1c-.26-.02.13.16 0 0-.14-.16-1.13.11-1.1-.1zM198.45 28.66l-.1 1.11-6.62-.58.1-1.1 3.79-5.24 1.1.1-1.3 2.1-2.5 3.13 5.53.48zm-.62-5.62l-.77 8.84-2.21-.19.77-8.84 2.2.19zM203.35 23.52l-.77 8.85-1.1-.1.57-6.63-2.2-.2.1-1.1 3.4-.82z" fill="#858585"/><rect x=".45" y=".54" width="178.53" height="28.65" rx="14.33" transform="rotate(5 -5395.82 1668.09) skewX(.01)" stroke="#858585"/><path d="M134.42 495.78l.56-6.45.78.07-.25 2.87 3.43.3.25-2.87.78.07-.57 6.44-.78-.06.26-2.89-3.43-.3-.25 2.89-.78-.07zM142.1 496.56c-.31-.02-.58-.1-.82-.24a1.43 1.43 0 01-.55-.56 1.43 1.43 0 01-.15-.83c.02-.27.1-.5.22-.66.13-.16.28-.28.47-.37.2-.08.4-.13.63-.16a31.48 31.48 0 011.4-.08c.18-.01.32-.04.4-.08.1-.04.15-.12.16-.24v-.02a.99.99 0 00-.2-.75c-.14-.19-.39-.3-.73-.32-.36-.03-.64.02-.85.16-.22.13-.38.29-.47.46l-.68-.32a1.7 1.7 0 011.28-.92 2.9 2.9 0 011.28.06c.2.06.39.15.57.28.18.13.32.31.43.55.1.24.14.56.1.94l-.27 3.18-.75-.06.06-.66h-.03c-.06.1-.16.2-.29.31-.12.12-.29.2-.5.27-.2.07-.43.09-.72.06zm.17-.65c.29.02.54-.02.75-.11a1.2 1.2 0 00.7-.97l.07-.68c-.04.03-.1.06-.22.09a3.57 3.57 0 01-.77.06l-.32.01c-.2.01-.38.04-.55.08a.93.93 0 00-.42.21.64.64 0 00-.2.44c-.02.25.06.46.24.6.18.15.42.24.72.27zM144.86 498.09l.18-2.08.4.03a1.85 1.85 0 00.5-.72c.07-.16.14-.35.2-.59.06-.23.11-.52.17-.86l.33-1.9 3.07.27-.36 4.15.74.06-.18 2.08-.75-.07.13-1.38-3.57-.31-.12 1.38-.74-.06zm1.42-1.97l2.32.2.3-3.45-1.63-.14-.23 1.2c-.1.51-.2.95-.3 1.32-.12.37-.27.66-.46.87zM150.83 497.21l.43-4.83.74.06-.43 4.84-.74-.07zm.87-5.6a.53.53 0 01-.36-.18.48.48 0 01-.12-.37.48.48 0 01.19-.34.53.53 0 01.38-.12c.15.01.27.07.36.18.1.1.14.23.13.37a.47.47 0 01-.2.34.52.52 0 01-.38.12zM154.7 497.65a2.1 2.1 0 01-1.13-.42 2.1 2.1 0 01-.68-.95c-.14-.39-.2-.83-.15-1.3.04-.5.17-.93.38-1.29a2.05 2.05 0 012-1.04c.35.04.65.13.91.28a1.66 1.66 0 01.88 1.4l-.74-.06a1.13 1.13 0 00-1.08-.94 1.3 1.3 0 00-.78.15c-.23.13-.42.33-.56.6-.15.25-.24.57-.27.93-.03.37 0 .7.1 1 .09.28.24.5.44.68.2.17.45.27.74.3.2.01.38 0 .54-.06a1.1 1.1 0 00.7-.69l.74.07a1.73 1.73 0 01-1.08 1.23c-.28.1-.6.15-.95.11zM157.1 497.76l.05-.69.18.01a.7.7 0 00.37-.05c.1-.05.19-.14.26-.28s.13-.34.19-.6l.16-1 .27-2.13 3.22.28-.42 4.84-.75-.07.37-4.14-1.77-.15-.23 1.71c-.05.4-.12.75-.2 1.04-.08.3-.18.54-.3.74-.13.19-.29.33-.47.42-.2.09-.42.12-.69.1l-.25-.03zM163.97 498.48c-.3-.03-.58-.11-.82-.25a1.44 1.44 0 01-.55-.56 1.43 1.43 0 01-.15-.82c.03-.28.1-.5.23-.66.12-.17.28-.29.47-.37.19-.08.4-.14.62-.17a30.76 30.76 0 011.4-.08c.19 0 .32-.03.41-.07.09-.04.14-.12.15-.24v-.03a1 1 0 00-.19-.74c-.15-.19-.4-.3-.74-.33-.35-.03-.64.02-.85.16-.22.14-.37.3-.47.46l-.68-.31a1.7 1.7 0 011.28-.93 2.85 2.85 0 011.28.07c.2.05.4.14.57.27.18.13.32.32.43.56.1.24.14.55.1.93l-.27 3.19-.74-.07.06-.65h-.04a1.45 1.45 0 01-.77.58c-.2.06-.45.08-.73.06zm.17-.66c.3.03.55 0 .76-.1a1.18 1.18 0 00.7-.98l.06-.68c-.03.04-.1.07-.22.09a3.55 3.55 0 01-.77.07h-.31c-.2.02-.38.04-.56.08a.93.93 0 00-.42.22.63.63 0 00-.19.43c-.02.26.06.46.24.61.18.15.41.24.71.26zM167.07 494.46l.06-.69 3.92.34-.06.7-1.58-.14-.36 4.14-.75-.07.37-4.14-1.6-.14zM172.37 498l2.65-3.54.85.08-.42 4.83-.74-.06.33-3.74-2.64 3.53-.87-.07.43-4.84.74.07-.33 3.74zM178.94 499.68l.43-4.84 3.79.33-.42 4.84-.74-.07.36-4.14-2.31-.2-.37 4.14-.74-.06zM185.87 500.38a2.1 2.1 0 01-1.12-.4c-.31-.25-.54-.56-.7-.95-.14-.39-.2-.83-.15-1.33a3 3 0 01.38-1.3c.22-.35.5-.62.85-.8a2.1 2.1 0 011.17-.21c.44.03.8.17 1.12.4.3.24.54.56.69.95.15.4.2.84.16 1.34-.05.5-.18.93-.4 1.29-.2.35-.49.62-.84.8a2.1 2.1 0 01-1.16.21zm.05-.66c.33.02.61-.04.84-.19.23-.15.4-.36.53-.63a2.62 2.62 0 00.16-1.8 1.53 1.53 0 00-.41-.72c-.2-.19-.47-.3-.8-.33-.33-.03-.6.04-.84.19-.22.15-.4.36-.53.63s-.2.57-.23.9c-.03.32 0 .62.07.9.08.3.22.53.42.72.2.19.46.3.8.33zM189.01 500.56l.43-4.84 1.97.18a2 2 0 011.2.46c.3.26.42.58.38.97a.9.9 0 01-.32.66c-.18.14-.42.23-.7.26a1.38 1.38 0 01.9.7c.09.18.12.4.1.65a1.2 1.2 0 01-.83 1.06c-.24.1-.52.13-.85.1l-2.28-.2zm.77-.62l1.57.14a.9.9 0 00.61-.13c.16-.11.25-.27.26-.48a.8.8 0 00-.16-.6.82.82 0 00-.58-.28l-1.57-.14-.13 1.49zm.18-2.13l1.27.11c.2.02.37 0 .52-.03a.72.72 0 00.35-.21.6.6 0 00.15-.37.55.55 0 00-.22-.5 1.22 1.22 0 00-.68-.23l-1.27-.12-.12 1.35zM193.8 500.98l.43-4.84.74.07-.43 4.83-.74-.06zm.87-5.61a.53.53 0 01-.36-.18.47.47 0 01-.12-.37.47.47 0 01.19-.34.53.53 0 01.38-.12c.15.02.27.08.36.18.1.11.14.23.13.37a.47.47 0 01-.2.34.52.52 0 01-.38.12zM195.09 502.48l.18-2.07.4.03a1.85 1.85 0 00.5-.72c.08-.16.14-.36.2-.59.06-.24.12-.52.18-.86l.33-1.9 3.06.27-.36 4.15.74.06-.18 2.08-.74-.07.12-1.38-3.57-.31-.12 1.38-.74-.07zm1.42-1.96l2.33.2.3-3.45-1.63-.14-.24 1.2c-.1.5-.2.94-.3 1.32-.12.37-.27.66-.46.87zM203.02 501.88a2.1 2.1 0 01-1.12-.4c-.3-.24-.54-.56-.7-.95-.14-.38-.2-.83-.15-1.33a3 3 0 01.39-1.3c.22-.35.5-.62.84-.8a2.1 2.1 0 011.18-.21c.43.04.8.17 1.11.4.31.25.54.56.7.95.14.4.2.84.15 1.34-.04.5-.17.93-.39 1.29-.21.36-.5.63-.84.8-.35.18-.74.25-1.17.21zm.06-.66c.33.03.6-.03.83-.19.23-.15.41-.36.54-.62.13-.27.2-.57.23-.9.03-.31 0-.62-.07-.9a1.54 1.54 0 00-.42-.73c-.2-.19-.46-.3-.8-.32-.32-.03-.6.03-.83.18-.23.15-.4.37-.54.64-.12.27-.2.56-.23.89-.03.32 0 .62.08.91.07.29.21.52.41.71.2.19.47.3.8.33zM208.9 501.28l2.01-3.68.7.07-2.5 4.65-.6-.06-1.63-5 .69.05 1.32 3.97zm-1.57-3.99l-.42 4.83-.74-.06.42-4.83.74.06zm3.37 5.17l.43-4.84.74.07-.43 4.83-.74-.06zM212.2 502.59l.06-.7.17.02a.7.7 0 00.37-.05.6.6 0 00.26-.29c.07-.14.14-.34.2-.6.05-.26.1-.59.15-1l.28-2.12 3.21.28-.42 4.83-.74-.06.36-4.14-1.77-.16-.23 1.72c-.05.4-.11.74-.2 1.04-.07.3-.18.54-.3.73-.13.2-.28.34-.47.42-.19.1-.41.12-.68.1l-.25-.02zM219.68 503.34a2.08 2.08 0 01-1.88-1.35c-.15-.39-.2-.83-.16-1.32.05-.5.18-.93.39-1.29a2.04 2.04 0 012-1.04c.26.02.5.09.74.2a1.85 1.85 0 011.05 1.24c.1.32.12.7.08 1.16l-.03.31-3.72-.32.06-.64 2.97.25c.02-.27-.02-.52-.1-.74a1.24 1.24 0 00-1.1-.8c-.3-.02-.56.03-.79.16-.22.13-.4.3-.54.52-.13.23-.21.47-.24.74l-.03.43c-.04.36 0 .67.1.94.1.26.27.47.48.62.22.15.48.24.78.27.19.01.37 0 .53-.04.16-.04.3-.11.43-.21.13-.1.23-.24.3-.4l.7.26c-.1.24-.24.44-.43.61-.2.17-.43.29-.7.37-.27.08-.57.1-.9.07zM226.1 501.03l-.06.69-2.66-.23.06-.7 2.66.24zm-2.3-2.3l-.43 4.84-.74-.07.43-4.83.74.06zm3.05.27l-.42 4.83-.74-.06.42-4.83.74.06zM231.07 501.46l-.06.7-2.66-.24.06-.7 2.66.24zm-2.3-2.3l-.43 4.84-.74-.06.43-4.84.74.07zm3.05.27l-.42 4.84-.74-.07.42-4.83.74.06zM235.48 504.63l.36-4.16-1.28-.11c-.3-.03-.52.02-.7.14a.68.68 0 00-.3.53.7.7 0 00.18.57.9.9 0 00.6.25l1.56.14-.06.69-1.56-.14c-.33-.03-.6-.1-.83-.25-.23-.13-.4-.31-.5-.54-.11-.22-.15-.49-.13-.78a1.3 1.3 0 01.89-1.2c.26-.09.56-.12.9-.09l2 .17-.43 4.84-.7-.06zm-3.22-.29l1.58-2.28.8.07-1.57 2.29-.8-.08z" fill="#858585"/><path d="M352.05 506.4l-12.77-1.12 4.52 4.86m8.25-3.74l-7.82 10.23-.43-6.49m8.25-3.74l-8.25 3.74" stroke="#858585" stroke-linejoin="round"/><path d="M319.52 514.9c-.22.06-.58.03-.79-.07-1.8-.82-5.7-3.92-5.29-8.57a3.65 3.65 0 013.88-3.4 3.5 3.5 0 012.7 1.74 3.5 3.5 0 012.97-1.24 3.65 3.65 0 013.23 4.02c-.4 4.65-4.79 7.03-6.7 7.52z" stroke="#858585" stroke-linecap="round" stroke-linejoin="round"/><defs><filter id="filter0_f_340_1442" x="73.63" y=".19" width="377.32" height="620.67" filterUnits="userSpaceOnUse" color-interpolation-filters="sRGB"><feFlood flood-opacity="0" result="BackgroundImageFix"/><feBlend in="SourceGraphic" in2="BackgroundImageFix" result="shape"/><feGaussianBlur stdDeviation="30" result="effect1_foregroundBlur_340_1442"/></filter></defs></svg>