<svg aria-hidden="true" style="position: absolute; width: 0; height: 0; overflow: hidden;" version="1.1" xmlns="http://www.w3.org/2000/svg" xmlns:xlink="http://www.w3.org/1999/xlink">
<defs>
<symbol id="icon-Arrow-6" viewBox="0 0 160 32">
<path fill="#ea4781" style="fill: var(--color1, #ea4781)" d="M157.414 17.414c0.781-0.781 0.781-2.047 0-2.828l-12.728-12.728c-0.781-0.781-2.048-0.781-2.828 0s-0.781 2.047 0 2.828l11.314 11.314-11.314 11.314c-0.781 0.781-0.781 2.047 0 2.828s2.047 0.781 2.828 0l12.728-12.728zM0 18h156v-4h-156v4z"></path>
</symbol>
<symbol id="icon-Ellipse-1" viewBox="0 0 32 32">
<path fill="none" stroke="#ea4781" style="stroke: var(--color1, #ea4781)" stroke-linejoin="miter" stroke-linecap="butt" stroke-miterlimit="4" stroke-width="1.1429" d="M31.429 16c0 8.521-6.908 15.429-15.429 15.429s-15.429-6.908-15.429-15.429c0-8.521 6.908-15.429 15.429-15.429s15.429 6.908 15.429 15.429z"></path>
</symbol>
<symbol id="icon-Facebook" viewBox="0 0 32 32">
<path fill="currentColor" d="M0 16c0-8.837 7.163-16 16-16s16 7.163 16 16c0 8.837-7.163 16-16 16s-16-7.163-16-16zM17.668 25.408v-8.705h2.403l0.318-3h-2.721l0.004-1.501c0-0.782 0.074-1.202 1.198-1.202h1.502v-3h-2.403c-2.887 0-3.903 1.455-3.903 3.902v1.801h-1.799v3h1.799v8.705h3.602z"></path>
</symbol>
<symbol id="icon-Inst" viewBox="0 0 32 32">
<path fill="currentColor" d="M0 16c0-8.837 7.163-16 16-16s16 7.163 16 16c0 8.837-7.163 16-16 16s-16-7.163-16-16zM16.001 7.467c-2.318 0-2.608 0.010-3.519 0.052-0.908 0.042-1.529 0.185-2.071 0.396-0.561 0.218-1.037 0.509-1.512 0.984s-0.766 0.95-0.985 1.511c-0.212 0.543-0.356 1.163-0.396 2.071-0.041 0.91-0.051 1.201-0.051 3.519s0.010 2.608 0.052 3.518c0.042 0.908 0.186 1.529 0.396 2.071 0.218 0.561 0.51 1.037 0.984 1.512s0.95 0.767 1.511 0.985c0.543 0.211 1.163 0.355 2.071 0.396 0.91 0.041 1.201 0.052 3.518 0.052s2.608-0.010 3.518-0.052c0.908-0.042 1.529-0.185 2.072-0.396 0.561-0.218 1.036-0.51 1.511-0.985s0.766-0.95 0.985-1.512c0.21-0.543 0.354-1.163 0.396-2.071 0.041-0.91 0.052-1.2 0.052-3.518s-0.011-2.608-0.052-3.519c-0.043-0.908-0.187-1.528-0.396-2.071-0.219-0.561-0.51-1.037-0.985-1.512s-0.949-0.766-1.511-0.984c-0.544-0.211-1.164-0.355-2.073-0.396-0.91-0.041-1.2-0.052-3.518-0.052h0.003z"></path>
<path fill="currentColor"  d="M15.235 9.004c0.227-0 0.481 0 0.766 0 2.278 0 2.548 0.008 3.448 0.049 0.832 0.038 1.284 0.177 1.584 0.294 0.398 0.155 0.682 0.34 0.981 0.638s0.484 0.583 0.639 0.981c0.117 0.3 0.256 0.752 0.294 1.584 0.041 0.9 0.050 1.17 0.050 3.447s-0.009 2.548-0.050 3.447c-0.038 0.832-0.177 1.284-0.294 1.584-0.155 0.398-0.34 0.682-0.639 0.98s-0.582 0.484-0.981 0.638c-0.3 0.117-0.752 0.256-1.584 0.294-0.9 0.041-1.17 0.050-3.448 0.050s-2.549-0.009-3.448-0.050c-0.832-0.038-1.284-0.177-1.585-0.294-0.398-0.155-0.683-0.34-0.981-0.638s-0.484-0.582-0.639-0.981c-0.117-0.3-0.256-0.752-0.294-1.584-0.041-0.9-0.049-1.17-0.049-3.449s0.008-2.548 0.049-3.447c0.038-0.832 0.177-1.284 0.294-1.584 0.155-0.398 0.34-0.683 0.639-0.981s0.583-0.484 0.981-0.639c0.301-0.117 0.753-0.256 1.585-0.294 0.787-0.036 1.092-0.046 2.683-0.048v0.002zM20.556 10.421c-0.565 0-1.024 0.458-1.024 1.024s0.459 1.024 1.024 1.024c0.565 0 1.024-0.459 1.024-1.024s-0.459-1.024-1.024-1.024zM16.001 11.618c-2.42 0-4.382 1.962-4.382 4.382s1.962 4.381 4.382 4.381 4.382-1.961 4.382-4.381c0-2.42-1.961-4.382-4.382-4.382z"></path>
<path  fill="currentColor" d="M16.001 13.156c1.571 0 2.844 1.273 2.844 2.844s-1.274 2.844-2.844 2.844c-1.571 0-2.844-1.274-2.844-2.844s1.273-2.844 2.844-2.844z"></path>
</symbol>
<symbol id="icon-Logo_1" viewBox="0 0 112 33">
<line y1="32.5" x2="112" y2="32.5" stroke="currentColor" />
<path fill="currentColor" d="M10.3155 15.6491C11.9055 16.2921 13.1411 17.0581 14.0222 17.947C14.9034 18.8359 15.344 19.8099 15.344 20.869C15.344 22.5522 14.5586 23.9612 12.9878 25.096C11.3979 26.2119 9.55887 26.7698 7.47086 26.7698C5.26792 26.7698 3.46725 26.2781 2.06885 25.2946C0.689618 24.2922 0 23.0345 0 21.5215C0 20.4624 0.411855 19.4884 1.23557 18.5995C2.05928 17.7106 3.18948 17.0108 4.62619 16.5002C2.11674 15.2141 0.862023 13.5498 0.862023 11.5072C0.862023 10.0131 1.52291 8.76487 2.84467 7.76249C4.20475 6.76012 5.73724 6.25893 7.44213 6.25893C9.54929 6.25893 11.2446 6.7223 12.5281 7.64902C13.8115 8.55683 14.4532 9.66322 14.4532 10.9682C14.4532 12.9351 13.074 14.4954 10.3155 15.6491ZM3.27569 10.0037C3.27569 11.006 3.55345 11.8476 4.10897 12.5285C4.68366 13.2094 5.64146 13.824 6.98238 14.3725L9.53972 15.3654C11.1488 14.0983 11.9534 12.5758 11.9534 10.798C11.9534 9.53083 11.5415 8.52846 10.7178 7.79086C9.8941 7.03436 8.72558 6.6561 7.21225 6.6561C6.1012 6.6561 5.16256 6.98707 4.39631 7.64902C3.64923 8.31096 3.27569 9.09584 3.27569 10.0037ZM12.9303 22.5428C12.9303 20.7083 11.5894 19.2614 8.90757 18.2023L5.89049 17.0676C5.64146 17.0108 5.45948 16.9352 5.34454 16.8406C3.39062 18.0699 2.41366 19.6491 2.41366 21.5782C2.41366 22.9589 2.90214 24.0842 3.8791 24.9542C4.87522 25.8052 6.20656 26.2308 7.87314 26.2308C9.48225 26.2308 10.7274 25.8903 11.6086 25.2095C12.4897 24.5097 12.9303 23.6208 12.9303 22.5428Z" />
<path fill="currentColor" d="M28.4934 26.7414C25.62 26.7414 23.1585 25.8336 21.1088 24.018C19.0591 22.2024 18.0342 19.8004 18.0342 16.8122C18.0342 13.7484 19.0399 11.2235 21.0513 9.23769C23.101 7.25185 25.62 6.25893 28.6084 6.25893C29.4129 6.25893 30.3228 6.34404 31.3381 6.51426C32.3534 6.68447 32.9376 6.76958 33.0909 6.76958C33.8188 6.76958 34.3169 6.32513 34.5851 5.43623C34.7 5.28493 34.7575 5.28493 34.7575 5.43623L36.9125 14.2874C36.9125 14.363 36.8742 14.3914 36.7976 14.3725C36.7784 14.3725 36.7497 14.3441 36.7114 14.2874C35.7919 11.8287 34.518 9.93746 32.8897 8.61357C31.2615 7.28968 29.7577 6.62773 28.3785 6.62773C26.5395 6.62773 24.9879 7.41261 23.7236 8.98236C22.4784 10.5521 21.8559 12.6325 21.8559 15.2236C21.8559 18.1172 22.6604 20.4718 24.2695 22.2875C25.8978 24.1031 28.0241 25.0109 30.6485 25.0109C34.0008 25.0109 36.5869 23.0062 38.4067 18.9967C38.4833 18.921 38.5504 18.9115 38.6078 18.9683C38.6653 19.0061 38.6749 19.0723 38.6366 19.1669C36.3378 24.2166 32.9568 26.7414 28.4934 26.7414Z" />
<path fill="currentColor" d="M50.9374 6.25893C54.2323 6.25893 56.895 7.19511 58.9255 9.06747C60.9752 10.9209 62.0001 13.3607 62.0001 16.3867C62.0001 19.3749 60.9273 21.8619 58.7819 23.8478C56.6364 25.8147 53.9641 26.7982 50.765 26.7982C47.566 26.7982 44.9512 25.8714 42.9206 24.018C40.9093 22.1456 39.9036 19.7153 39.9036 16.7271C39.9036 13.7389 40.9571 11.2519 43.0643 9.26606C45.1715 7.26131 47.7959 6.25893 50.9374 6.25893ZM51.4834 26.401C53.4182 26.3632 55.0464 25.5972 56.3682 24.1031C57.69 22.5901 58.3125 20.3205 58.2359 17.2945C58.2167 14.4954 57.4697 12.0179 55.9946 9.86181C54.5579 7.68684 52.6998 6.61828 50.4202 6.6561C48.4663 6.69393 46.8285 7.46935 45.5067 8.98236C44.1849 10.5332 43.5624 12.8216 43.639 15.8477C43.6581 17.5687 43.9838 19.2614 44.6159 20.9258C45.2289 22.5144 46.1389 23.8383 47.3457 24.8974C48.5525 25.9376 49.9318 26.4388 51.4834 26.401Z" />
<path fill="currentColor" d="M74.5831 26.7982C73.4912 26.7982 72.3227 26.713 71.0776 26.5428C69.8324 26.3726 69.0853 26.2875 68.8363 26.2875C68.2425 26.2875 67.821 26.7225 67.572 27.5925C67.5528 27.6492 67.5145 27.6776 67.4571 27.6776C67.4188 27.6776 67.39 27.6492 67.3709 27.5925L65.1871 18.4293C65.1679 18.3536 65.1775 18.3158 65.2158 18.3158C65.3116 18.3158 65.3691 18.3442 65.3882 18.4009C66.3077 20.7461 67.6295 22.6657 69.3535 24.1598C71.0967 25.6728 72.8399 26.4294 74.5831 26.4294C76.0198 26.4294 77.2171 26.07 78.1749 25.3513C79.1518 24.6137 79.6403 23.6965 79.6403 22.5995C79.7553 21.3702 79.2285 20.3867 78.0599 19.6491C77.7151 19.4222 77.2362 19.1858 76.6232 18.9399L74.7843 18.2591C74.4778 18.1456 73.654 17.8808 72.3131 17.4647C70.0144 16.765 68.3478 15.9612 67.3134 15.0534C66.279 14.1266 65.7618 12.9257 65.7618 11.4505C65.7618 9.93746 66.3556 8.69868 67.5433 7.73413C68.7309 6.75066 70.3209 6.25893 72.3131 6.25893C73.1943 6.25893 74.1904 6.34404 75.3015 6.51426C76.4125 6.68447 77.1021 6.76958 77.3703 6.76958C77.6385 6.73175 77.8588 6.64664 78.0312 6.51426C78.2228 6.36295 78.3473 6.21165 78.4047 6.06035C78.4814 5.90905 78.558 5.71046 78.6346 5.4646C78.6538 5.40786 78.6825 5.37949 78.7208 5.37949C78.7591 5.37949 78.7879 5.40786 78.807 5.4646L80.8759 14.0321C80.8759 14.1455 80.828 14.1834 80.7322 14.1455C80.6939 14.1455 80.6652 14.1077 80.646 14.0321C79.7648 11.7436 78.5388 9.928 76.968 8.5852C75.4356 7.26131 73.7786 6.59936 71.9971 6.59936C70.9435 6.59936 70.0336 6.93034 69.2673 7.59228C68.5394 8.25423 68.1754 9.04856 68.1754 9.97528C68.1946 10.7507 68.3478 11.3748 68.6352 11.8476C68.9417 12.3205 69.5259 12.7744 70.3879 13.2094C71.2691 13.6444 72.6005 14.1266 74.382 14.6562C76.9297 15.3749 78.8549 16.2259 80.1575 17.2094C81.4601 18.1929 82.1114 19.4127 82.1114 20.869C82.1114 22.5901 81.3739 24.0085 79.8989 25.1244C78.4239 26.2402 76.652 26.7982 74.5831 26.7982Z" />
<path fill="currentColor" d="M111.833 26.2875C111.89 26.2875 111.929 26.3064 111.948 26.3442C111.986 26.3821 111.996 26.4199 111.976 26.4577C111.957 26.4955 111.909 26.5145 111.833 26.5145C111.277 26.5145 110.636 26.4955 109.908 26.4577C109.199 26.4388 108.835 26.4294 108.816 26.4294L105.885 26.4577C105.789 26.4577 105.387 26.4672 104.678 26.4861C103.988 26.5239 103.385 26.5523 102.868 26.5712C102.81 26.5712 102.762 26.5523 102.724 26.5145C102.705 26.4766 102.705 26.4388 102.724 26.401C102.762 26.3632 102.81 26.3442 102.868 26.3442C103.308 26.3253 103.644 26.297 103.873 26.2591C104.123 26.2213 104.362 26.1457 104.592 26.0322C104.822 25.8998 104.985 25.7485 105.08 25.5783C105.195 25.4081 105.291 25.1433 105.368 24.7839C105.463 24.4246 105.521 24.0274 105.54 23.5924C105.578 23.1385 105.607 22.5428 105.626 21.8052V8.24477L98.7588 17.7484L99.7932 19.2236C98.6822 20.0936 97.9926 20.8217 97.7244 21.408C97.6861 21.4648 97.6382 21.4648 97.5807 21.408L88.3283 9.01074V20.9541C88.3283 22.4104 88.6923 23.6681 89.4202 24.7272C90.1482 25.7485 91.1634 26.2781 92.466 26.3159C92.5235 26.3159 92.5618 26.3348 92.581 26.3726C92.6193 26.4104 92.6193 26.4483 92.581 26.4861C92.5618 26.5239 92.5235 26.5428 92.466 26.5428C92.0829 26.5428 91.2209 26.5239 89.88 26.4861C89.2287 26.4672 88.6444 26.4577 88.1272 26.4577C87.7249 26.4577 87.2652 26.4672 86.748 26.4861C85.7135 26.5239 85.0335 26.5428 84.7078 26.5428C84.6312 26.5428 84.5929 26.5145 84.5929 26.4577C84.6121 26.401 84.6504 26.3632 84.7078 26.3442C85.7231 26.3064 86.5181 25.8431 87.0928 24.9542C87.6866 24.0653 87.9835 22.9872 87.9835 21.7201C87.9835 19.9234 87.974 18.2496 87.9548 16.6988V11.6207C87.9548 10.1644 87.8686 9.09584 87.6962 8.41498C87.5238 7.73413 87.2364 7.28968 86.8342 7.08164C86.451 6.85468 85.8285 6.74121 84.9665 6.74121C84.8515 6.74121 84.794 6.70338 84.794 6.62773C84.794 6.55208 84.8515 6.51426 84.9665 6.51426C85.5794 6.51426 86.2691 6.53317 87.0353 6.57099C87.8207 6.58991 88.223 6.59936 88.2421 6.59936H90.6558L98.5289 17.4647L106.373 6.59936H108.816C108.835 6.59936 109.199 6.58991 109.908 6.57099C110.636 6.53317 111.277 6.51426 111.833 6.51426C111.986 6.51426 112.034 6.56154 111.976 6.6561C111.938 6.71284 111.89 6.74121 111.833 6.74121C111.182 6.77903 110.703 6.83577 110.396 6.91142C110.109 6.98707 109.85 7.19511 109.62 7.53554C109.39 7.85706 109.247 8.29205 109.189 8.84052C109.132 9.37008 109.094 10.1739 109.074 11.2519V21.7768C109.094 22.8548 109.132 23.6681 109.189 24.2166C109.247 24.7461 109.39 25.1811 109.62 25.5215C109.85 25.8431 110.109 26.0416 110.396 26.1173C110.703 26.1929 111.182 26.2497 111.833 26.2875Z" />
<line y1="0.564453" x2="112" y2="0.564453" />
</symbol>
<symbol id="icon-Telegram" viewBox="0 0 32 32">
<path fill="currentColor"  d="M32 16c0 8.837-7.163 16-16 16s-16-7.163-16-16c0-8.837 7.163-16 16-16s16 7.163 16 16zM10.714 14.534c-1.603 0.7-3.25 1.419-4.755 2.248-0.786 0.576 0.259 0.983 1.239 1.365 0.156 0.061 0.31 0.121 0.455 0.181 0.121 0.037 0.243 0.076 0.368 0.116 1.090 0.347 2.306 0.735 3.365 0.152 1.739-0.999 3.38-2.154 5.020-3.308 0.537-0.378 1.074-0.756 1.615-1.129 0.025-0.016 0.054-0.035 0.085-0.055 0.46-0.298 1.496-0.97 1.113-0.045-0.906 0.99-1.876 1.867-2.851 2.749-0.657 0.594-1.317 1.19-1.961 1.825-0.561 0.456-1.143 1.372-0.515 2.010 1.447 1.013 2.916 2.001 4.384 2.988 0.478 0.321 0.956 0.643 1.432 0.965 0.808 0.645 2.071 0.123 2.249-0.885 0.079-0.464 0.158-0.928 0.238-1.391 0.438-2.563 0.877-5.127 1.264-7.699 0.053-0.403 0.112-0.807 0.172-1.21 0.145-0.978 0.29-1.957 0.335-2.941-0.117-0.981-1.307-0.766-1.969-0.545-3.403 1.295-6.773 2.686-10.129 4.102-0.38 0.168-0.766 0.337-1.154 0.506z"></path>
</symbol>
<symbol id="icon-WhatsApp" viewBox="0 0 32 32">
<path fill="currentColor" d="M16 32c-8.837 0-16-7.163-16-16s7.163-16 16-16c8.837 0 16 7.163 16 16s-7.163 16-16 16zM16.527 24.902c5.246-0.002 9.512-4.27 9.514-9.514 0.001-2.542-0.988-4.932-2.784-6.731s-4.185-2.789-6.73-2.79c-5.244 0-9.512 4.268-9.514 9.514-0.001 1.677 0.437 3.314 1.27 4.756l-1.35 4.93 5.044-1.323c1.39 0.758 2.954 1.158 4.547 1.158h0.004z"></path>
<path fill="currentColor" d="M12.211 22.021l-2.993 0.785 0.799-2.918-0.188-0.299c-0.792-1.259-1.21-2.714-1.209-4.208 0.002-4.36 3.549-7.907 7.911-7.907 2.112 0.001 4.098 0.824 5.591 2.319s2.315 3.481 2.314 5.594c-0.002 4.36-3.549 7.908-7.908 7.908h-0.003c-1.419-0.001-2.811-0.382-4.025-1.102l-0.289-0.171zM21.321 17.65c-0.059-0.099-0.218-0.159-0.456-0.278s-1.406-0.694-1.624-0.773c-0.218-0.079-0.376-0.119-0.535 0.119s-0.614 0.774-0.753 0.932c-0.139 0.159-0.277 0.178-0.515 0.059s-1.004-0.37-1.912-1.18c-0.707-0.63-1.184-1.409-1.322-1.647s-0.015-0.367 0.104-0.485c0.107-0.107 0.238-0.278 0.357-0.417s0.158-0.238 0.238-0.396c0.079-0.159 0.040-0.298-0.020-0.417s-0.535-1.289-0.733-1.765c-0.193-0.464-0.389-0.401-0.535-0.408-0.138-0.007-0.297-0.008-0.456-0.008s-0.416 0.060-0.634 0.298c-0.218 0.238-0.832 0.813-0.832 1.983s0.852 2.301 0.971 2.459c0.119 0.159 1.676 2.56 4.061 3.59 0.567 0.245 1.010 0.391 1.355 0.501 0.569 0.181 1.088 0.155 1.497 0.094 0.457-0.068 1.406-0.575 1.605-1.13s0.198-1.031 0.139-1.13z"></path>
</symbol>
</defs>
</svg>
