<svg aria-hidden="true" style="position: absolute; width: 0; height: 0; overflow: hidden;" version="1.1" xmlns="http://www.w3.org/2000/svg" xmlns:xlink="http://www.w3.org/1999/xlink">
<defs>
<symbol id="icon-Facebook" viewBox="0 0 32 32">
<path fill="currentColor" d="M0 16c0-8.837 7.163-16 16-16s16 7.163 16 16c0 8.837-7.163 16-16 16s-16-7.163-16-16zM17.668 25.408v-8.705h2.403l0.318-3h-2.721l0.004-1.501c0-0.782 0.074-1.202 1.198-1.202h1.502v-3h-2.403c-2.887 0-3.903 1.455-3.903 3.902v1.801h-1.799v3h1.799v8.705h3.602z"></path>
</symbol>
<symbol id="icon-Inst" viewBox="0 0 32 32">
<path fill="currentColor" d="M0 16c0-8.837 7.163-16 16-16s16 7.163 16 16c0 8.837-7.163 16-16 16s-16-7.163-16-16zM16.001 7.467c-2.318 0-2.608 0.010-3.519 0.052-0.908 0.042-1.529 0.185-2.071 0.396-0.561 0.218-1.037 0.509-1.512 0.984s-0.766 0.95-0.985 1.511c-0.212 0.543-0.356 1.163-0.396 2.071-0.041 0.91-0.051 1.201-0.051 3.519s0.010 2.608 0.052 3.518c0.042 0.908 0.186 1.529 0.396 2.071 0.218 0.561 0.51 1.037 0.984 1.512s0.95 0.767 1.511 0.985c0.543 0.211 1.163 0.355 2.071 0.396 0.91 0.041 1.201 0.052 3.518 0.052s2.608-0.010 3.518-0.052c0.908-0.042 1.529-0.185 2.072-0.396 0.561-0.218 1.036-0.51 1.511-0.985s0.766-0.95 0.985-1.512c0.21-0.543 0.354-1.163 0.396-2.071 0.041-0.91 0.052-1.2 0.052-3.518s-0.011-2.608-0.052-3.519c-0.043-0.908-0.187-1.528-0.396-2.071-0.219-0.561-0.51-1.037-0.985-1.512s-0.949-0.766-1.511-0.984c-0.544-0.211-1.164-0.355-2.073-0.396-0.91-0.041-1.2-0.052-3.518-0.052h0.003z"></path>
<path fill="currentColor"  d="M15.235 9.004c0.227-0 0.481 0 0.766 0 2.278 0 2.548 0.008 3.448 0.049 0.832 0.038 1.284 0.177 1.584 0.294 0.398 0.155 0.682 0.34 0.981 0.638s0.484 0.583 0.639 0.981c0.117 0.3 0.256 0.752 0.294 1.584 0.041 0.9 0.050 1.17 0.050 3.447s-0.009 2.548-0.050 3.447c-0.038 0.832-0.177 1.284-0.294 1.584-0.155 0.398-0.34 0.682-0.639 0.98s-0.582 0.484-0.981 0.638c-0.3 0.117-0.752 0.256-1.584 0.294-0.9 0.041-1.17 0.050-3.448 0.050s-2.549-0.009-3.448-0.050c-0.832-0.038-1.284-0.177-1.585-0.294-0.398-0.155-0.683-0.34-0.981-0.638s-0.484-0.582-0.639-0.981c-0.117-0.3-0.256-0.752-0.294-1.584-0.041-0.9-0.049-1.17-0.049-3.449s0.008-2.548 0.049-3.447c0.038-0.832 0.177-1.284 0.294-1.584 0.155-0.398 0.34-0.683 0.639-0.981s0.583-0.484 0.981-0.639c0.301-0.117 0.753-0.256 1.585-0.294 0.787-0.036 1.092-0.046 2.683-0.048v0.002zM20.556 10.421c-0.565 0-1.024 0.458-1.024 1.024s0.459 1.024 1.024 1.024c0.565 0 1.024-0.459 1.024-1.024s-0.459-1.024-1.024-1.024zM16.001 11.618c-2.42 0-4.382 1.962-4.382 4.382s1.962 4.381 4.382 4.381 4.382-1.961 4.382-4.381c0-2.42-1.961-4.382-4.382-4.382z"></path>
<path  fill="currentColor" d="M16.001 13.156c1.571 0 2.844 1.273 2.844 2.844s-1.274 2.844-2.844 2.844c-1.571 0-2.844-1.274-2.844-2.844s1.273-2.844 2.844-2.844z"></path>
</symbol>
<symbol id="icon-Telegram" viewBox="0 0 32 32">
<path fill="currentColor"  d="M32 16c0 8.837-7.163 16-16 16s-16-7.163-16-16c0-8.837 7.163-16 16-16s16 7.163 16 16zM10.714 14.534c-1.603 0.7-3.25 1.419-4.755 2.248-0.786 0.576 0.259 0.983 1.239 1.365 0.156 0.061 0.31 0.121 0.455 0.181 0.121 0.037 0.243 0.076 0.368 0.116 1.090 0.347 2.306 0.735 3.365 0.152 1.739-0.999 3.38-2.154 5.020-3.308 0.537-0.378 1.074-0.756 1.615-1.129 0.025-0.016 0.054-0.035 0.085-0.055 0.46-0.298 1.496-0.97 1.113-0.045-0.906 0.99-1.876 1.867-2.851 2.749-0.657 0.594-1.317 1.19-1.961 1.825-0.561 0.456-1.143 1.372-0.515 2.010 1.447 1.013 2.916 2.001 4.384 2.988 0.478 0.321 0.956 0.643 1.432 0.965 0.808 0.645 2.071 0.123 2.249-0.885 0.079-0.464 0.158-0.928 0.238-1.391 0.438-2.563 0.877-5.127 1.264-7.699 0.053-0.403 0.112-0.807 0.172-1.21 0.145-0.978 0.29-1.957 0.335-2.941-0.117-0.981-1.307-0.766-1.969-0.545-3.403 1.295-6.773 2.686-10.129 4.102-0.38 0.168-0.766 0.337-1.154 0.506z"></path>
</symbol>
<symbol id="icon-WhatsApp" viewBox="0 0 32 32">
<path fill="currentColor" d="M16 32c-8.837 0-16-7.163-16-16s7.163-16 16-16c8.837 0 16 7.163 16 16s-7.163 16-16 16zM16.527 24.902c5.246-0.002 9.512-4.27 9.514-9.514 0.001-2.542-0.988-4.932-2.784-6.731s-4.185-2.789-6.73-2.79c-5.244 0-9.512 4.268-9.514 9.514-0.001 1.677 0.437 3.314 1.27 4.756l-1.35 4.93 5.044-1.323c1.39 0.758 2.954 1.158 4.547 1.158h0.004z"></path>
<path fill="currentColor" d="M12.211 22.021l-2.993 0.785 0.799-2.918-0.188-0.299c-0.792-1.259-1.21-2.714-1.209-4.208 0.002-4.36 3.549-7.907 7.911-7.907 2.112 0.001 4.098 0.824 5.591 2.319s2.315 3.481 2.314 5.594c-0.002 4.36-3.549 7.908-7.908 7.908h-0.003c-1.419-0.001-2.811-0.382-4.025-1.102l-0.289-0.171zM21.321 17.65c-0.059-0.099-0.218-0.159-0.456-0.278s-1.406-0.694-1.624-0.773c-0.218-0.079-0.376-0.119-0.535 0.119s-0.614 0.774-0.753 0.932c-0.139 0.159-0.277 0.178-0.515 0.059s-1.004-0.37-1.912-1.18c-0.707-0.63-1.184-1.409-1.322-1.647s-0.015-0.367 0.104-0.485c0.107-0.107 0.238-0.278 0.357-0.417s0.158-0.238 0.238-0.396c0.079-0.159 0.040-0.298-0.020-0.417s-0.535-1.289-0.733-1.765c-0.193-0.464-0.389-0.401-0.535-0.408-0.138-0.007-0.297-0.008-0.456-0.008s-0.416 0.060-0.634 0.298c-0.218 0.238-0.832 0.813-0.832 1.983s0.852 2.301 0.971 2.459c0.119 0.159 1.676 2.56 4.061 3.59 0.567 0.245 1.010 0.391 1.355 0.501 0.569 0.181 1.088 0.155 1.497 0.094 0.457-0.068 1.406-0.575 1.605-1.13s0.198-1.031 0.139-1.13z"></path>
</symbol>
<symbol id="logo" viewBox="0 0 105 31">
<path stroke-width="1" d="M0 30.5h105"/>
<path stroke="none" stroke-width="0" d="M9.67 14.7c1.5.6 2.65 1.32 3.48 2.16a3.84 3.84 0 011.23 2.74c0 1.59-.73 2.9-2.2 3.97A8.77 8.77 0 017 25.15a8.6 8.6 0 01-5.06-1.39A4.24 4.24 0 010 20.22c0-1 .39-1.91 1.16-2.75a7.8 7.8 0 013.18-1.97C1.98 14.3.8 12.73.8 10.81c0-1.4.62-2.58 1.86-3.52a7.08 7.08 0 014.3-1.41c1.98 0 3.57.43 4.78 1.3 1.2.86 1.8 1.9 1.8 3.12 0 1.85-1.3 3.32-3.88 4.4zm-6.6-5.3c0 .94.26 1.73.78 2.37a6.92 6.92 0 002.7 1.73l2.4.93a5.32 5.32 0 002.26-4.29 3.6 3.6 0 00-1.16-2.82 4.68 4.68 0 00-3.29-1.07 3.9 3.9 0 00-2.64.94 2.87 2.87 0 00-1.05 2.2zm9.05 11.78c0-1.73-1.25-3.09-3.77-4.08l-2.83-1.07c-.23-.05-.4-.12-.5-.21-1.84 1.15-2.76 2.64-2.76 4.45 0 1.3.46 2.35 1.38 3.17.93.8 2.18 1.2 3.74 1.2a5.6 5.6 0 003.5-.96 3.07 3.07 0 001.24-2.5zM26.71 25.12c-2.7 0-5-.85-6.92-2.56a8.61 8.61 0 01-2.88-6.77 9.58 9.58 0 019.91-9.91c.75 0 1.6.08 2.56.24.95.16 1.5.24 1.64.24.69 0 1.15-.42 1.4-1.25.11-.15.17-.15.17 0l2.02 8.31c0 .07-.04.1-.11.08-.02 0-.05-.03-.08-.08a12.17 12.17 0 00-3.59-5.33c-1.52-1.24-2.93-1.86-4.23-1.86a5.4 5.4 0 00-4.36 2.2c-1.17 1.48-1.75 3.44-1.75 5.87 0 2.72.75 4.93 2.26 6.64a7.65 7.65 0 005.98 2.55c3.15 0 5.57-1.88 7.28-5.64.07-.08.13-.08.18-.03.06.03.07.1.03.19-2.15 4.74-5.32 7.11-9.5 7.11zM47.75 5.88c3.1 0 5.59.88 7.5 2.64a8.84 8.84 0 012.88 6.87c0 2.81-1.01 5.15-3.02 7.01a10.69 10.69 0 01-7.52 2.77c-3 0-5.45-.87-7.35-2.6a8.94 8.94 0 01-2.83-6.86c0-2.8.99-5.14 2.96-7a10.28 10.28 0 017.38-2.83zm.52 18.92a6.04 6.04 0 004.58-2.16c1.23-1.42 1.82-3.55 1.75-6.4a12.24 12.24 0 00-2.1-6.98c-1.35-2.04-3.1-3.04-5.23-3a6.04 6.04 0 00-4.6 2.18c-1.25 1.45-1.83 3.6-1.76 6.45.02 1.61.32 3.2.92 4.77a9.35 9.35 0 002.56 3.73 5.55 5.55 0 003.88 1.41zM69.92 25.17c-1.02 0-2.12-.08-3.28-.24a24.98 24.98 0 00-2.1-.24c-.56 0-.96.41-1.2 1.23 0 .05-.05.08-.1.08-.03 0-.06-.03-.08-.08l-2.05-8.6c-.02-.08 0-.11.03-.11.09 0 .14.02.16.08.86 2.2 2.1 4 3.72 5.4 1.63 1.43 3.27 2.14 4.9 2.14 1.35 0 2.47-.34 3.37-1.02a3.13 3.13 0 001.37-2.58c.11-1.16-.38-2.08-1.48-2.77a7.79 7.79 0 00-1.35-.67l-1.72-.64c-.29-.1-1.06-.35-2.32-.74-2.15-.66-3.71-1.42-4.68-2.27-.97-.87-1.46-2-1.46-3.38a4.3 4.3 0 011.67-3.5 6.78 6.78 0 014.47-1.38c.83 0 1.76.08 2.8.24 1.05.16 1.7.24 1.94.24.26-.04.46-.12.62-.24.18-.14.3-.28.35-.43.08-.14.15-.33.22-.56.02-.05.04-.08.08-.08s.06.03.08.08l1.94 8.05c0 .1-.04.14-.13.1-.04 0-.07-.03-.08-.1a12.46 12.46 0 00-3.45-5.12A7 7 0 0067.5 6.2c-.99 0-1.84.31-2.56.93a2.92 2.92 0 00-1.03 2.24c.02.73.17 1.32.44 1.76.28.44.83.87 1.64 1.28.82.4 2.07.86 3.74 1.36 2.4.67 4.2 1.47 5.42 2.4a4.17 4.17 0 011.83 3.43c0 1.62-.7 2.95-2.07 4a8.01 8.01 0 01-4.99 1.57zM104.84 24.7c.06 0 .1.01.11.05.04.03.05.07.03.1-.02.04-.06.06-.14.06a288.28 288.28 0 00-2.83-.08l-2.74.02a85.08 85.08 0 00-2.83.11.18.18 0 01-.14-.05.11.11 0 010-.1.18.18 0 01.14-.06c.41-.02.73-.05.94-.08.23-.04.46-.1.67-.22.22-.12.37-.26.46-.42a5.25 5.25 0 00.43-1.87c.04-.42.07-.98.08-1.68V7.74l-6.43 8.93.97 1.39a6.61 6.61 0 00-1.94 2.05c-.04.05-.08.05-.14 0L82.81 8.46v11.22c0 1.37.34 2.55 1.02 3.55a3.44 3.44 0 002.86 1.5c.05 0 .09 0 .1.04.04.04.04.08 0 .11-.01.04-.05.05-.1.05-.36 0-1.17-.01-2.43-.05a56.93 56.93 0 00-4.85.05c-.07 0-.1-.02-.1-.08a.16.16 0 01.1-.1c.96-.04 1.7-.47 2.24-1.3.56-.84.83-1.86.83-3.05 0-1.68 0-3.26-.02-4.71v-4.77c0-1.37-.08-2.38-.24-3.02-.17-.63-.44-1.05-.81-1.25a3.59 3.59 0 00-1.75-.32c-.11 0-.17-.03-.17-.1 0-.08.06-.11.17-.11a392.87 392.87 0 003.07.08h2.26l7.38 10.2 7.35-10.2h2.3a290.89 290.89 0 002.82-.08c.15 0 .2.04.14.13-.04.06-.08.08-.14.08-.6.04-1.06.1-1.34.16-.27.07-.52.27-.73.59-.22.3-.35.7-.4 1.22-.06.5-.1 1.26-.11 2.27v9.89c.02 1 .05 1.77.1 2.29.06.5.2.9.4 1.22.22.3.47.5.74.56.28.08.73.13 1.34.16z" />
<path stroke-width="1" d="M0 .5h105"/></symbol>
<symbol id="burger_icon_open" viewBox="0 0 54 54" fill="none" ><circle cx="27" cy="27" r="26.5"/><path stroke-width="2" stroke-linecap="round" d="M13 27h28M13 35h28M13 19h28"/></symbol>
<symbol id="close_icon" viewBox="0 0 21 21" fill="none" xmlns="http://www.w3.org/2000/svg">
<line x1="1.41421" y1="1" x2="20" y2="19.5858" stroke="#F5B9D1" stroke-width="2" stroke-linecap="round"/>
<line x1="1" y1="19.5858" x2="19.5858" y2="1" stroke="#F5B9D1" stroke-width="2" stroke-linecap="round"/>
</symbol>
<symbol id="close_icon_gallery" viewBox="0 0 21 21" fill="none" xmlns="http://www.w3.org/2000/svg">
<line x1="1.41421" y1="1" x2="20" y2="19.5858"  stroke-width="2" stroke-linecap="round"/>
<line x1="1" y1="19.5858" x2="19.5858" y2="1"  stroke-width="2" stroke-linecap="round"/>
</symbol>
</defs>
</svg>
